# xmcd CD database file
#
# Track frame offsets:
#	150
#	20780
#	35329
#	53189
#	78856
#	98325
#	113931
#	132872
#	151526
#	173248
#	195012
#	213729
#	229112
#	245822
#	269155
#
# Disc length: 3804 seconds
#
# Revision: 0
# Processed by: cddbd v1.5.1PL0 Copyright (c) Steve Scherf et al.
# Submitted via: CDex 1.51
#
DISCID=c30eda0f
DTITLE=Jamie Cullum - Twentysomething
DYEAR=2004
DGENRE=Jazz
TTITLE0=All at Sea
TTITLE1=Blame It On My Youth
TTITLE2=But for Now
TTITLE3=Frontin' (BBC Radio 1 Live Lounge (live))
TTITLE4=High and Dry (US Version)
TTITLE5=I Could Have Danced All Night
TTITLE6=I Get a Kick Out of You
TTITLE7=It's About Time
TTITLE8=Lover, You Should Have Come Over
TTITLE9=Next Year Baby
TTITLE10=Singin' in the Rain
TTITLE11=These Are the Days
TTITLE12=Twentysomething
TTITLE13=What a Difference a Day Made
TTITLE14=Wind Cries Mary
EXTD=YEAR: 2004
EXTT0=
EXTT1=
EXTT2=
EXTT3=
EXTT4=
EXTT5=
EXTT6=
EXTT7=
EXTT8=
EXTT9=
EXTT10=
EXTT11=
EXTT12=
EXTT13=
EXTT14=
PLAYORDER=
